<?xml version="1.0" encoding="utf-8"?>
<!-- Generator: Adobe Illustrator 24.1.2, SVG Export Plug-In . SVG Version: 6.00 Build 0)  -->
<svg version="1.1" xmlns="http://www.w3.org/2000/svg" xmlns:xlink="http://www.w3.org/1999/xlink" x="0px" y="0px"
	 viewBox="150 60 120 20" style="enable-background:new 0 0 288 560;" xml:space="preserve">
<style type="text/css">
	.st0{fill:#E0E0E0;}
	.st1{fill:#FFFFFF;}
	.st2{fill:#444545;}
	.st3{fill:#59595A;}
</style>
<g id="Layer_1">
	<g id="Computers__x2B__Accesories">
		<g id="Laptop">
			<g>

					<rect x="173.17" y="81.26" transform="matrix(0.9905 0.1377 -0.1377 0.9905 13.4544 -27.9386)" class="st0" width="70.91" height="3.99"/>
			</g>
			<g>
				<polygon class="st0" points="178.08,70.6 173.79,76.4 244.02,86.16 241.47,79.42 				"/>
				<path class="st1" d="M243.88,87.16l-70.24-9.77c-0.35-0.05-0.65-0.28-0.79-0.6c-0.14-0.32-0.1-0.7,0.11-0.98l4.3-5.8
					c0.22-0.3,0.58-0.45,0.95-0.4l63.39,8.81c0.37,0.05,0.68,0.3,0.81,0.64l2.55,6.75c0.12,0.33,0.07,0.7-0.16,0.97
					C244.59,87.07,244.24,87.2,243.88,87.16z M175.6,75.64l66.88,9.3l-1.75-4.62l-62.19-8.65L175.6,75.64z"/>
			</g>
			<g>

					<rect x="180.81" y="31.16" transform="matrix(0.9905 0.1377 -0.1377 0.9905 9.3529 -28.801)" class="st2" width="64" height="44.06"/>
			</g>
			<g>
				<path class="st2" d="M241.33,80.41l-63.39-8.81c-0.55-0.08-0.94-0.58-0.86-1.13l6.07-43.64c0.08-0.55,0.59-0.93,1.14-0.85
					l63.39,8.81c0.55,0.08,0.94,0.58,0.86,1.13l-6.07,43.64C242.39,80.1,241.88,80.48,241.33,80.41z M179.22,69.75l61.39,8.54
					l5.79-41.66l-61.39-8.54L179.22,69.75z"/>
			</g>
			<g>
				<path class="st2" d="M243.88,87.16l-70.24-9.77c-0.35-0.05-0.65-0.28-0.79-0.6c-0.14-0.32-0.1-0.7,0.11-0.98l4.3-5.8
					c0.22-0.3,0.58-0.45,0.95-0.4l63.39,8.81c0.37,0.05,0.68,0.3,0.81,0.64l2.55,6.75c0.12,0.33,0.07,0.7-0.16,0.97
					C244.59,87.07,244.24,87.2,243.88,87.16z M175.6,75.64l66.88,9.3l-1.75-4.62l-62.19-8.65L175.6,75.64z"/>
			</g>
			<g>
				<path class="st2" d="M243.33,91.11l-70.24-9.77c-0.55-0.08-0.94-0.58-0.86-1.13l0.55-3.96c0.08-0.55,0.59-0.93,1.14-0.85
					l70.24,9.77c0.55,0.08,0.94,0.58,0.86,1.13l-0.55,3.96C244.4,90.81,243.89,91.19,243.33,91.11z M174.37,79.5l68.24,9.49
					l0.27-1.98l-68.24-9.49L174.37,79.5z"/>
			</g>
			<g>

					<rect x="184.02" y="34.34" transform="matrix(0.9905 0.1377 -0.1377 0.9905 9.3529 -28.801)" class="st3" width="57.58" height="37.7"/>
			</g>
		</g>
	</g>
</g>
</svg>
