<?xml version="1.0" encoding="utf-8"?>
<!-- Generator: Adobe Illustrator 24.1.2, SVG Export Plug-In . SVG Version: 6.00 Build 0)  -->
<svg version="1.1" id="Layer_1" xmlns="http://www.w3.org/2000/svg" xmlns:xlink="http://www.w3.org/1999/xlink" x="0px" y="0px"
	 viewBox="300 300 30 180" style="enable-background:new 0 0 612 792;" xml:space="preserve">
<style type="text/css">
	.st0{fill:#FFFFFF;}
	.st1{fill:#FFCC04;}
	.st2{clip-path:url(#SVGID_1_);}
	.st3{clip-path:url(#SVGID_2_);}
</style>
<g>
	<g transform="translate(-19 -14)">
		<g>
			<g>
				<g>
					<path id="dl1wd" class="st0" d="M325.11,424.98h0.43v-29.95h-0.43V424.98z"/>
				</g>
			</g>
			<g>
				<g>
					<path id="dl1we" class="st1" d="M304.31,395.02l-8.56,11.8l-8.55-11.8h-12.39v8.42h3.2v13.11h-3.2v8.42h15.78v-8.42h-3.42
						v-8.53l8.58,11.72l8.58-11.72v8.53h-3.42v8.42h15.77v-8.42h-3.2v-13.11h3.2v-8.42H304.31z"/>
				</g>
			</g>
			<g>
				<g>
					<path id="dl1wf" class="st0" d="M334.08,395.02v29.95h7.26v-2.32h-4.52v-12.07h4.31v-2.32h-4.31v-10.92h4.52v-2.32H334.08z"/>
				</g>
			</g>
			<g>
				<g>
					<path id="dl1wg" class="st0" d="M344.81,395.02v29.95h7.27v-2.32h-4.52v-12.07h4.31v-2.32h-4.31v-10.92h4.52v-2.32H344.81z"/>
				</g>
			</g>
			<g>
				<g>
					<g>
						<defs>
							<rect id="SVGID_5_" x="355.57" y="394.77" width="8.54" height="30.45"/>
						</defs>
						<clipPath id="SVGID_1_">
							<use xlink:href="#SVGID_5_"  style="overflow:visible;"/>
						</clipPath>
						<g class="st2">
							<g>
								<path id="dl1wi" class="st0" d="M361.37,399.02c0-1.3-0.45-1.91-1.53-1.91s-1.54,0.62-1.54,1.9v21.99
									c0,1.29,0.46,1.9,1.54,1.9s1.53-0.61,1.53-1.9v-4.19h2.74v4.27c0,2.53-1.4,4.15-4.27,4.15c-2.86,0-4.27-1.62-4.27-4.15
									v-22.15c0-2.53,1.4-4.15,4.27-4.15c2.86,0,4.27,1.62,4.27,4.15v3.94h-2.74V399.02z"/>
							</g>
						</g>
					</g>
				</g>
				<g>
					<g>
						<defs>
							<polygon id="SVGID_7_" points="366.31,394.77 375.18,394.77 375.18,425.23 366.3,425.23 							"/>
						</defs>
						<clipPath id="SVGID_2_">
							<use xlink:href="#SVGID_7_"  style="overflow:visible;"/>
						</clipPath>
						<g class="st3">
							<g>
								<path id="dl1wk" class="st0" d="M372.36,399.14c0-1.16-0.29-2.03-1.58-2.03c-1.28,0-1.57,0.87-1.57,2.03v3.15
									c0,0.96,0.16,1.9,0.62,2.7l4.36,7.47c0.62,1.03,1,2.32,1,3.65v4.73c0,2.82-1.67,4.4-4.4,4.4c-3.03,0-4.49-1.38-4.49-4.4
									v-4.12h2.74v3.94c0,1.41,0.54,2.24,1.74,2.24c1.12,0,1.66-0.83,1.66-2.24v-4.2c0-1.03-0.2-1.82-0.78-2.85l-4.03-7.01
									c-0.75-1.13-1.16-2.46-1.16-3.82v-3.61c0-2.95,1.53-4.4,4.31-4.4c3.07,0,4.32,1.45,4.32,4.2v3.81h-2.74V399.14z"/>
							</g>
						</g>
					</g>
				</g>
			</g>
		</g>
	</g>
</g>
</svg>
