<?xml version="1.0" encoding="utf-8"?>
<!-- Generator: Adobe Illustrator 24.1.2, SVG Export Plug-In . SVG Version: 6.00 Build 0)  -->
<svg version="1.1" xmlns="http://www.w3.org/2000/svg" xmlns:xlink="http://www.w3.org/1999/xlink" x="0px" y="0px"
	 viewBox="0 200 640 100" style="enable-background:new 0 0 640 480;" xml:space="preserve">
<style type="text/css">
	.st0{fill:#6666CC;}
</style>
<g id="Layer_1">
</g>
<g id="Layer_2">
	<g>
		<g>
			<path class="st0" d="M29.55,183.53c1.42-9.06-2.39-24.22-14.35-22.95c-11.11,1.18-14.21,15.67-11.6,24.6
				c1.38,4.71,4.26,8.65,9.39,9.25c3.5,0.41,7.39-0.85,10.66,0.9c3.82,2.05,5.7,6.81,6.85,10.74c1.25,4.3,1.73,8.87,2.1,13.33
				c0.43,5.16-1.2,8.64-4.74,12.43c-8.02,8.57-24.78,1.28-21.96-10.89c0.43-1.86-2.44-2.66-2.87-0.79
				c-2.83,12.16,9.77,21.32,21.19,17.8c4.49-1.38,8.85-6.82,10.63-11c2.43-5.7,0.32-14.19-1.07-20c-1.22-5.11-3.47-10.91-8.12-13.84
				c-6.46-4.07-15.22,1.73-18.75-7.37c-2.74-7.06-1.29-19.79,7.45-21.98c10.26-2.58,13.44,11.83,12.31,19
				C26.38,184.62,29.25,185.42,29.55,183.53L29.55,183.53z"/>
		</g>
	</g>
	<g>
		<g>
			<path class="st0" d="M59.08,206.7c1.92,0,1.92-2.98,0-2.98C57.17,203.73,57.16,206.7,59.08,206.7L59.08,206.7z"/>
		</g>
	</g>
	<g>
		<g>
			<path class="st0" d="M60.48,205.87c-0.41-4.95-4.3-12.08-10.37-9.57c-7.43,3.07-7.26,15.01-7.02,21.47
				c0.22,6.12,1.24,15.45,8.09,17.81c7.94,2.73,11.9-6.6,11.76-12.88c-0.04-1.91-3.02-1.92-2.98,0c0.05,2.57-0.23,5.35-1.76,7.53
				c-2.6,3.69-7.55,2.85-9.64-0.75c-1.98-3.43-2.36-7.84-2.5-11.7c-0.15-4.18-0.18-8.74,1.05-12.76c0.52-1.71,1.39-4.03,2.88-5.13
				c4.7-3.47,7.24,2.69,7.51,5.98C57.66,207.76,60.64,207.78,60.48,205.87L60.48,205.87z"/>
		</g>
	</g>
	<g>
		<g>
			<path class="st0" d="M66.96,201.52c0.99,10.74,1.98,21.49,2.97,32.23c0.99,0,1.98,0,2.98,0c-0.53-5.01-3.86-33.78,7.42-30.5
				c1.84,0.53,2.63-2.34,0.79-2.87c-5.34-1.55-9.1,3.05-10.65,7.68c-2.68,7.97-1.41,17.55-0.54,25.7c0.2,1.88,3.15,1.92,2.98,0
				c-0.99-10.74-1.98-21.49-2.97-32.23C69.76,199.63,66.79,199.61,66.96,201.52L66.96,201.52z"/>
		</g>
	</g>
	<g>
		<g>
			<path class="st0" d="M94.68,200.68c0.29-2.53-1.7-4.68-4.28-3.38c-3.54,1.78-4.7,7.64-5.23,11.07
				c-1.17,7.62-2.45,22.82,6.61,26.72c9.4,4.05,13.6-9.95,13.78-16.49c0.21-7.7-2.53-22.67-13.3-20.56
				c-1.88,0.37-1.08,3.24,0.79,2.87c7.95-1.56,9.58,11.7,9.55,16.86c-0.01,3.04-0.4,6.11-1.57,8.94c-1.47,3.58-5.24,8.11-9.55,4.67
				c-4.16-3.32-4.12-10.6-3.97-15.38c0.08-2.78,0.25-5.63,0.78-8.37c0.27-1.4,0.64-2.76,1.19-4.08c0.07-0.18,2.26-3.25,2.22-2.87
				C91.49,202.58,94.47,202.56,94.68,200.68L94.68,200.68z"/>
		</g>
	</g>
	<g>
		<g>
			<path class="st0" d="M109.63,165.6c2.82,10.97,1.95,23.16,2.3,34.42c0.37,11.6,0.73,23.2,1.1,34.8c0.06,1.91,3.04,1.92,2.98,0
				c-0.39-12.24-0.77-24.49-1.16-36.73c-0.35-10.94,0.4-22.6-2.35-33.28C112.03,162.95,109.16,163.74,109.63,165.6L109.63,165.6z"/>
		</g>
	</g>
	<g>
		<g>
			<path class="st0" d="M123.5,163.61c0.41,22.73,1.49,45.43,3.24,68.09c0.15,1.9,3.12,1.91,2.98,0
				c-1.75-22.66-2.82-45.37-3.24-68.09C126.45,161.7,123.47,161.69,123.5,163.61L123.5,163.61z"/>
		</g>
	</g>
	<g>
		<g>
			<path class="st0" d="M270.56,165.56c-1.19,15.21-1.62,30.46-1.19,45.7c0.14,4.86,1.2,25.44,11.14,19.02
				c1.6-1.04,0.11-3.61-1.5-2.57c-6.13,3.96-6.56-13.03-6.63-15.47c-0.16-5.19-0.22-10.39-0.19-15.58
				c0.07-10.38,0.54-20.75,1.35-31.09C273.68,163.65,270.71,163.66,270.56,165.56L270.56,165.56z"/>
		</g>
	</g>
	<g>
		<g>
			<path class="st0" d="M264.85,189.8c6.62-0.65,13.23-1.31,19.85-1.96c1.89-0.19,1.91-3.17,0-2.98
				c-6.62,0.65-13.23,1.31-19.85,1.96C262.96,187.01,262.94,189.98,264.85,189.8L264.85,189.8z"/>
		</g>
	</g>
	<g>
		<g>
			<path class="st0" d="M292.43,201.21c-6.81-6.68-8.48,10.62-8.82,13.84c-0.63,5.88-1.36,19.59,7.63,19.79
				c8.17,0.18,11.98-10.79,12.16-17.3c0.22-7.58-3.57-17.31-12-18.43c-1.89-0.25-1.87,2.73,0,2.98c5.63,0.75,8.29,7.57,8.85,12.47
				c0.53,4.56-0.58,13.37-5.39,15.85c-1.82,0.94-5.98,0.33-7.18-1.38c-0.55-0.79-0.72-1.88-0.94-2.8c-0.58-2.42-0.57-5.02-0.46-7.49
				c0.11-2.44,0.41-4.89,0.75-7.31c0.06-0.41,1.54-9.83,3.29-8.11C291.7,204.66,293.8,202.56,292.43,201.21L292.43,201.21z"/>
		</g>
	</g>
	<g>
		<g>
			<path class="st0" d="M319.18,166.34c1.28,22.42,1.77,44.87,1.48,67.33c-0.02,1.92,2.95,1.92,2.98,0
				c0.29-22.46-0.2-44.91-1.48-67.33C322.04,164.44,319.07,164.43,319.18,166.34L319.18,166.34z"/>
		</g>
	</g>
	<g>
		<g>
			<path class="st0" d="M161.02,206.47c-1.28-2.97-4.07-5.02-7.36-3.73c-3.93,1.54-5.45,6.89-6.24,10.56
				c-1.34,6.24-1.68,23.73,8.75,22.92c10.62-0.82,10.36-18.85,10.31-25.94c-0.1-16.17,0.94-32.27,2.15-48.39
				c0.12-1.65-2.69-2.06-2.92-0.4c-2.16,15.16-3.13,30.47-2.72,45.78c0.17,6.53-1.6,28.74,9.21,28.69c1.91-0.01,1.92-2.99,0-2.98
				c-2,0.01-3.9-3.26-4.4-4.89c-0.46-1.47-0.65-2.98-0.84-4.49c-0.36-2.89-0.52-5.81-0.68-8.72c-0.31-5.7-0.44-11.41-0.39-17.12
				c0.11-11.87,1.02-23.72,2.7-35.47c-0.97-0.13-1.95-0.26-2.92-0.4c-1.3,17.35-1.93,34.57-2.15,51.96
				c-0.05,4.12-0.22,8.44-1.57,12.37c-0.63,1.82-1.69,4.09-3.13,5.45c-3.27,3.1-6.25,0.35-7.72-2.83c-1.87-4.03-1.8-8.86-1.09-13.18
				c0.25-1.56,0.59-3.13,1.1-4.63c0.86-2.56,5.11-8.28,7.36-3.06C159.21,209.73,161.78,208.22,161.02,206.47L161.02,206.47z"/>
		</g>
	</g>
	<g>
		<g>
			<path class="st0" d="M186.29,201.04c-0.73-2.49-2.31-5.25-5.35-4.86c-3.07,0.4-4.68,4.13-5.67,6.6
				c-3.48,8.69-5.17,21.6,0.65,29.73c4.51,6.3,10.46,2.57,12.98-3.33c2.07-4.85,2.6-10.64,2.47-15.88
				c-0.07-2.94-0.17-7.52-3.26-8.97c-1.72-0.81-3.24,1.75-1.5,2.57c3.68,1.73,1.5,13.87,0.91,16.6c-0.51,2.38-1.19,4.97-2.65,6.97
				c-3.36,4.61-6.81,0.74-8.22-3c-1.9-5.04-1.7-10.89-0.73-16.11c0.4-2.16,0.96-4.31,1.69-6.38c0.43-1.22,3.78-10.02,5.79-3.15
				C183.96,203.66,186.83,202.88,186.29,201.04L186.29,201.04z"/>
		</g>
	</g>
	<g>
		<g>
			<path class="st0" d="M198.78,198.36c-2.4,5.62-3.2,11.58-3.49,17.64c-0.25,5.23-1.71,13.98,1.51,18.53
				c2.08,2.94,6.18,4.13,9.33,2.21c4.22-2.58,5.03-8.8,4.77-13.22c-0.11-1.94-2.78-1.89-2.98,0c-0.62,6,4.24,20.78,12.11,12.7
				c8.26-8.48,5.18-24.71,1.98-34.6c-0.59-1.82-3.46-1.04-2.87,0.79c2.44,7.54,3.98,15.74,2.32,23.62c-0.7,3.3-1.93,8.52-5.83,8.49
				c-4.82-0.03-5.12-7.32-4.74-11c-0.99,0-1.98,0-2.98,0c0.17,2.94-1.4,15.81-8.07,10c-2.79-2.43-1.72-8.99-1.7-12.38
				c0.04-7.16,0.35-14.61,3.2-21.29C202.1,198.12,199.53,196.6,198.78,198.36L198.78,198.36z"/>
		</g>
	</g>
	<g>
		<g>
			<path class="st0" d="M229.22,204.78c-1.09,9.77-1.04,19.53,0.14,29.29c0.23,1.88,2.81,1.94,2.98,0
				c0.47-5.51,1.31-10.96,2.73-16.31c0.64-2.44,1.36-4.9,2.28-7.24c0.36-0.91,1.51-4.38,2.57-4.73c1.77-0.58,3.52,3.22,3.77,4.4
				c1.86,8.61,0.53,17.63,4.22,25.85c0.78,1.74,3.35,0.23,2.57-1.5c-3.13-6.97-2.43-14.95-3.44-22.37c-0.44-3.21-1.43-9.73-5.79-10
				c-4.53-0.28-6.53,6.7-7.6,9.92c-2.38,7.12-3.66,14.52-4.29,21.99c0.99,0,1.98,0,2.98,0c-1.18-9.76-1.23-19.52-0.14-29.29
				C232.41,202.88,229.43,202.9,229.22,204.78L229.22,204.78z"/>
		</g>
	</g>
	<g>
		<g>
			<path class="st0" d="M334.83,212.28c3.55,0.06,7.41,1.46,9.98-1.83c1.93-2.46,2.01-6.11,1.34-9.03
				c-1.43-6.24-7.22-9.13-11.84-3.72c-5.67,6.64-5.03,18.58-3.51,26.56c0.68,3.56,2.01,7.4,5.63,8.87c3.97,1.61,8.73,0.08,12.4-1.58
				c1.74-0.78,0.23-3.35-1.5-2.57c-3.34,1.5-9.06,3.41-11.95-0.42c-1.52-2.01-1.83-5.5-2.08-7.87c-0.48-4.65-0.63-9.61,0.33-14.21
				c0.51-2.47,1.32-5.38,3.2-7.18c2.9-2.78,5.76-0.28,6.45,2.91c0.61,2.79,0.57,6.68-3.14,7.54c-1.53,0.35-3.71-0.41-5.3-0.44
				C332.91,209.27,332.91,212.24,334.83,212.28L334.83,212.28z"/>
		</g>
	</g>
	<g>
		<g>
			<path class="st0" d="M366.78,201.13c-2.96-5.03-8.68-4.04-11.58,0.59c-3.84,6.14-5.55,17.57-3.3,24.48
				c1.8,5.53,7.2,7.63,11.79,3.67c6.5-5.6,5.59-16.41,5.19-24.05c-0.1-1.9-3-1.93-2.98,0c0.1,8.55-0.03,20.14,8,25.47
				c1.6,1.06,3.09-1.51,1.5-2.57c-6.94-4.61-6.44-15.61-6.53-22.9c-0.99,0-1.98,0-2.98,0c0.23,4.4,0.53,8.91-0.21,13.27
				c-0.75,4.49-6.05,15.35-10.72,6.72c-1.95-3.61-0.79-9.41-0.13-13.19c0.42-2.42,4.57-18.15,9.36-10
				C365.18,204.28,367.75,202.79,366.78,201.13L366.78,201.13z"/>
		</g>
	</g>
	<g>
		<g>
			<path class="st0" d="M396.46,196.61c0.12,13.32,0.79,26.61,2.01,39.88c0.17,1.87,3.02,1.95,2.98,0
				c-0.18-7.46,0.16-14.92,1.26-22.31c0.51-3.43,1.05-6.97,2.04-10.3c0.79-2.65,0.64-3.66,3.81-3.55c3.52,0.12,2.73,1.47,3.09,4.7
				c0.67,6.08,0.89,12.29,2.08,18.29c0.73,3.7,1.92,7.78,5.49,9.63c1.7,0.88,3.2-1.69,1.5-2.57c-4.01-2.08-4.34-8.57-4.79-12.5
				c-0.53-4.61-0.86-9.24-1.41-13.84c-0.44-3.7-1.3-9.67-6.42-8.84c-5.83,0.94-6.86,10.05-7.66,14.5c-1.6,8.85-2.19,17.82-1.97,26.8
				c0.99,0,1.98,0,2.98,0c-1.22-13.26-1.89-26.56-2.01-39.88C399.42,194.69,396.44,194.69,396.46,196.61L396.46,196.61z"/>
		</g>
	</g>
	<g>
		<g>
			<path class="st0" d="M435.11,201.18c-0.23,11.45,0.57,22.82,2.38,34.13c0.26,1.64,3.1,1.27,2.92-0.4
				c-0.57-5.36-1.13-10.73-1.25-16.12c-0.06-2.95,0-5.92,0.28-8.86c0.23-2.38,0.4-6.81,1.73-8.9c0.21-1.57,1.41-2.06,3.57-1.48
				c2.17-1.55,3.46-1.38,3.88,0.53c0.77,1.15,1.13,2.93,1.47,4.23c0.68,2.55,1.18,5.16,1.62,7.76c1.07,6.21,1.55,12.47,1.63,18.76
				c0.99,0,1.98,0,2.98,0c-0.65-6.37-1.38-12.74-1.94-19.11c-0.23-2.66-0.42-5.32-0.03-7.97c0.1-1.4,0.47-2.73,1.1-4
				c1.86-0.32,3.73-0.64,5.59-0.96c0.98,0.43,1.47,3.17,1.75,4.04c1.71,5.21,2.84,10.97,3.33,16.41c0.45,5.02,0.26,9.99,1.7,14.87
				c0.54,1.83,3.42,1.05,2.87-0.79c-2.32-7.83-1.55-16.47-3.32-24.51c-0.98-4.44-2.09-13.14-7.49-14.64
				c-5.25-1.45-7.93,5.15-8.52,9.17c-1.3,8.8,1.08,18.72,1.97,27.5c0.19,1.86,3,1.95,2.98,0c-0.11-8.64-0.97-17.33-2.98-25.75
				c-1.03-4.31-3.21-12.45-9.22-11.84c-5.92,0.6-6.88,10.42-7.44,14.76c-1.15,8.95-0.21,18,0.74,26.91c0.97-0.13,1.95-0.26,2.92-0.4
				c-1.77-11.04-2.49-22.16-2.27-33.34C438.12,199.26,435.14,199.26,435.11,201.18L435.11,201.18z"/>
		</g>
	</g>
	<g>
		<g>
			<path class="st0" d="M483.36,197.97c-2.36-2.18-5.15-2.04-7.44,0.28c-3.18,3.21-3.24,8.57-3.44,12.79
				c-0.36,7.6,0.93,20.6,11.05,21.39c9.6,0.75,13.12-11.56,12.3-18.98c-0.88-7.91-7.28-19.77-16.94-15.88
				c-1.75,0.71-0.99,3.59,0.79,2.87c12.83-5.16,19.04,24.03,6.78,28.46c-7.02,2.53-10.64-6.19-11.05-11.73
				c-0.19-2.53-0.05-5.13,0.13-7.65c0.09-1.26,1.43-13.42,5.73-9.44C482.66,201.37,484.77,199.27,483.36,197.97L483.36,197.97z"/>
		</g>
	</g>
	<g>
		<g>
			<path class="st0" d="M498.1,201.04c1.32,10.7,2.65,21.4,3.97,32.1c0.23,1.86,3.15,1.93,2.98,0c-0.56-6.29-1.14-12.63-0.4-18.93
				c0.61-5.13,2.29-13.08,7.92-14.92c1.81-0.59,1.04-3.47-0.79-2.87c-13.25,4.31-10.61,26.53-9.7,36.72c0.99,0,1.98,0,2.98,0
				c-1.32-10.7-2.65-21.4-3.97-32.1C500.84,199.17,497.86,199.14,498.1,201.04L498.1,201.04z"/>
		</g>
	</g>
	<g>
		<g>
			<path class="st0" d="M517.67,216.46c3.28,0.29,8.42,2.09,10.9-0.92c2.27-2.76,1.82-7.74,0.74-10.85
				c-2.31-6.65-9.17-8.39-13.48-2.3c-7.12,10.08-0.6,40.18,15.92,31.99c1.72-0.85,0.21-3.42-1.5-2.57
				c-9.76,4.84-14.8-10.93-14.6-17.74c0.08-2.64,0.43-5.29,1.48-7.73c1.79-4.15,5.79-6.63,8.83-1.85c1.56,2.45,1.49,5.53,0.04,7.84
				c-1.4,2.23-1.53,1.74-3.82,1.53c-1.5-0.13-3.01-0.27-4.51-0.4C515.76,213.31,515.77,216.29,517.67,216.46L517.67,216.46z"/>
		</g>
	</g>
	<g>
		<g>
			<path class="st0" d="M376.76,197.76c2.39,10.65,3.95,21.4,4.72,32.29c0.97-0.13,1.95-0.26,2.92-0.4
				c-1.17-5.53-2.75-11.09-2.77-16.79c-0.03-5.44,1.75-13.94,8.55-14.43c1.9-0.14,1.91-3.11,0-2.98
				c-16.47,1.19-10.68,25.34-8.65,34.99c0.34,1.62,3.04,1.29,2.92-0.4c-0.78-11.15-2.38-22.17-4.83-33.08
				C379.21,195.1,376.34,195.89,376.76,197.76L376.76,197.76z"/>
		</g>
	</g>
	<g id="Mouse_and_Mousepad">
		<path class="st0" d="M602.77,171.29c-0.55-0.75-1.46-1.15-2.5-0.61c-6.52,3.36-12.77,7.44-18.16,12.5
			c-0.56,0.52-0.76,1.17-0.72,1.81c-0.02,0.47,0.1,0.97,0.41,1.46c2.66,4.18,5.32,8.36,7.98,12.55c2,3.15,3.85,6.91,6.66,9.41
			c4.82,4.29,11.56,2.86,16.31-0.38c14.52-9.9-1.61-27.97-9.84-36.6C602.88,171.37,602.82,171.33,602.77,171.29z M611.47,205.71
			c-2.76,1.55-8.62,3.59-11.66,1.65c-1.89-1.21-5.22-4.76-6.41-6.62c-3.1-4.85-6.18-11.12-9.26-15.98c1.61-1.42,5.37-4.19,7.1-5.45
			c2.04,2.94,5.2,7.52,7.37,10.36c1.82,2.39,3.58-0.36,1.75-2.76c-2.09-2.75-4.48-6.58-6.45-9.42c1.83-1.17,5.21-2.57,7.13-3.59
			C608.67,181.06,624.32,198.5,611.47,205.71z"/>
		<path class="st0" d="M631.04,189.45c-2.72-5.6-5.51-11.18-8.16-16.81c-1.83-3.9-3.31-7.94-5.49-11.67
			c-1.56-2.67-3.45-5.71-6.47-6.72c-3.55-1.18-6.94,0.79-10.22,1.77c-8.16,3.26-16.19,6.8-24.24,10.3
			c-7.21,3.14-16.19,5.1-21.44,11.39c-5.02,6.02,1,15.57,3.37,21.89c3.79,10.12,7.78,20.21,12.62,29.88
			c3.5,6.98,7.75,7.86,14.61,5.52c9.71-3.31,19.18-7.68,28.55-11.82c4.27-1.89,8.52-3.81,12.76-5.79c3.07-1.43,8.13-2.73,10.05-5.9
			C640.62,205.46,633.64,194.81,631.04,189.45z M633.87,201.46c1.1,3.07,3.29,7.61,0.16,9.3c-2.78,1.51-8.01,4.51-10.69,5.39
			c-3.72,1.22-7.85,3.73-11.59,5.37c-6.68,2.93-14.65,6.2-21.42,8.92c-3.04,1.22-6.47,2.5-9.84,2.61c-4.34,0.14-7.52-5.95-9.15-9.46
			c-3.38-7.29-6.53-14.98-9.38-22.49c-1.43-3.76-3.33-8.4-4.7-12.17c-0.49-1.36-2.01-5.11-1.91-6.54c0.18-2.56,3.34-5.09,5.28-6.42
			c3.24-2.21,7.98-3.84,11.59-5.37c2.99-1.27,5.95-2.26,8.93-3.56c6.8-2.98,13.63-6.18,20.52-8.93c2.91-0.86,7.17-3.39,9.87-0.75
			c2.15,2.1,5.26,7.62,6.47,10.35c2.93,6.61,5.26,12.25,8.41,18.75c1.59,3.27,4.08,7.01,5.57,10.33
			C632.71,198.39,633.27,199.8,633.87,201.46z"/>
	</g>
</g>
</svg>
