<?xml version="1.0" encoding="utf-8"?>
<!-- Generator: Adobe Illustrator 24.1.2, SVG Export Plug-In . SVG Version: 6.00 Build 0)  -->
<svg version="1.1" xmlns="http://www.w3.org/2000/svg" xmlns:xlink="http://www.w3.org/1999/xlink" x="0px" y="0px"
	 viewBox="0 300 640 40" style="enable-background:new 0 0 640 480;" xml:space="preserve">
<style type="text/css">
	.st0{fill:#6666CC;}
</style>
<g id="Layer_1">
</g>
<g id="Layer_2">
	<g>
		<g>
			<path class="st0" d="M34.53,185.39c1.94-10.96-4.03-26.55-17.52-24.73c-12.76,1.72-16.99,17.88-12.53,28.32
				c2.6,6.07,7.25,8.33,13.66,8.26c4.72-0.05,8.83-0.55,12.55,2.92c3.56,3.32,5.32,8.2,6.4,12.82c1.07,4.55,2.23,9.93,1.96,14.63
				c-0.27,4.73-4.76,10.15-8.67,12.67c-9.5,6.11-27.77-1.54-24.39-14.22c0.49-1.85-2.38-2.64-2.87-0.79
				c-3.84,14.4,13.43,22.82,25.52,19.1c5.21-1.6,11.33-8.05,12.93-13.28c1.14-3.7,0.1-8.06-0.39-11.78
				c-0.5-3.78-1.14-7.55-2.38-11.16c-1.87-5.45-5.33-11.33-11.11-13.27c-3.13-1.06-6.34-0.61-9.56-0.6
				c-6.33,0.02-10.08-2.71-11.75-8.85c-2.19-8.1,0.84-19.66,10.12-21.66c11.7-2.53,16.75,11.71,15.14,20.85
				C31.33,186.47,34.2,187.27,34.53,185.39L34.53,185.39z"/>
		</g>
	</g>
	<g>
		<g>
			<path class="st0" d="M70.47,210.49c1.92,0,1.92-2.98,0-2.98C68.56,207.51,68.56,210.49,70.47,210.49L70.47,210.49z"/>
		</g>
	</g>
	<g>
		<g>
			<path class="st0" d="M71.86,209.71c-0.49-5.79-5.39-12.84-12.05-10.29c-8.97,3.43-8.78,17.3-8.22,24.97
				c0.49,6.82,2.59,16.25,10.53,17.78c8.36,1.61,12.93-7.06,12.71-14.17c-0.06-1.91-3.03-1.92-2.98,0c0.2,6.49-5.65,15.6-12.72,9.42
				c-3.45-3.02-4.26-8.76-4.57-13.03c-0.36-4.8-0.41-10.12,0.93-14.76c0.95-3.27,2.71-6.87,6.36-7.33c4.26-0.53,6.7,3.53,7.03,7.41
				C69.04,211.6,72.02,211.62,71.86,209.71L71.86,209.71z"/>
		</g>
	</g>
	<g>
		<g>
			<path class="st0" d="M80.29,204.99c1.2,11.68,2.39,23.36,3.59,35.04c0.99,0,1.98,0,2.98,0c-0.69-5.77-1.13-11.59-0.98-17.4
				c0.14-5.5,1.86-18.24,10.33-15.89c1.85,0.51,2.64-2.36,0.79-2.87c-6.18-1.71-10.83,3.35-12.66,8.82
				c-2.83,8.49-1.5,18.65-0.46,27.34c0.22,1.87,3.17,1.92,2.98,0c-1.2-11.68-2.39-23.36-3.59-35.04
				C83.08,203.1,80.1,203.08,80.29,204.99L80.29,204.99z"/>
		</g>
	</g>
	<g>
		<g>
			<path class="st0" d="M113.13,204.07c0.38-2.99-2.09-4.82-4.86-3.45c-4.1,2.04-5.5,8.5-6.11,12.5
				c-1.31,8.48-2.23,26.27,9.34,28.68c20.1,4.2,20.34-44.55-0.9-40.49c-1.88,0.36-1.08,3.23,0.79,2.87
				c14.5-2.77,16.93,33.27,2.86,34.63c-8.98,0.87-9.98-11.85-9.77-18.09c0.1-3.1,0.33-6.25,1-9.28c0.34-1.54,0.76-3.15,1.46-4.57
				c0.22-0.41,0.45-0.83,0.67-1.24c0.43-1.76,1.28-2.29,2.55-1.57C109.91,205.96,112.89,205.94,113.13,204.07L113.13,204.07z"/>
		</g>
	</g>
	<g>
		<g>
			<path class="st0" d="M131.78,165.89c3.37,11.68,2.35,24.98,2.78,37.04c0.45,12.75,0.89,25.51,1.34,38.26
				c0.07,1.91,3.04,1.92,2.98,0c-0.47-13.41-0.94-26.81-1.41-40.22c-0.41-11.75,0.47-24.47-2.81-35.87
				C134.12,163.26,131.25,164.04,131.78,165.89L131.78,165.89z"/>
		</g>
	</g>
	<g>
		<g>
			<path class="st0" d="M148.53,163.76c0.5,24.72,1.8,49.41,3.91,74.04c0.16,1.89,3.14,1.91,2.98,0
				c-2.11-24.63-3.41-49.32-3.91-74.04C151.47,161.85,148.49,161.84,148.53,163.76L148.53,163.76z"/>
		</g>
	</g>
	<g>
		<g>
			<path class="st0" d="M326,165.88c-1.45,16.6-1.96,33.27-1.43,49.93c0.19,5.86,1.74,27.2,12.97,20.33c1.63-1,0.14-3.57-1.5-2.57
				c-1.63-0.29-3.25-0.58-4.88-0.87c-0.48-0.7-0.96-1.4-1.45-2.1c-0.89-1.7-1.24-3.62-1.53-5.49c-0.38-2.43-0.48-4.88-0.57-7.34
				c-0.22-5.88-0.31-11.77-0.27-17.65c0.07-11.43,0.64-22.85,1.63-34.24C329.14,163.98,326.16,163.99,326,165.88L326,165.88z"/>
		</g>
	</g>
	<g>
		<g>
			<path class="st0" d="M318.8,192.1c7.98-0.71,15.97-1.42,23.95-2.14c1.89-0.17,1.91-3.15,0-2.98c-7.98,0.71-15.97,1.42-23.95,2.14
				C316.91,189.29,316.89,192.27,318.8,192.1L318.8,192.1z"/>
		</g>
	</g>
	<g>
		<g>
			<path class="st0" d="M351.87,204.74c-8.27-7.31-10.03,13.19-10.37,17.27c-0.57,6.89,0.17,19.77,10.02,19.01
				c9.27-0.72,13.87-12.36,13.49-20.36c-0.39-8.17-5.38-17.19-14.16-18.17c-1.9-0.21-1.89,2.77,0,2.98
				c13.77,1.53,13.85,23.6,4.96,30.61c-3.38,2.66-8.28,2.18-10.15-1.99c-1.16-2.6-1.35-5.57-1.35-8.38c0-3.06,0.38-6.1,0.83-9.12
				c0.13-0.87,1.75-12.28,4.62-9.75C351.2,208.11,353.31,206.01,351.87,204.74L351.87,204.74z"/>
		</g>
	</g>
	<g>
		<g>
			<path class="st0" d="M384.67,166.73c1.55,24.37,2.14,48.79,1.79,73.21c-0.03,1.92,2.95,1.92,2.98,0
				c0.35-24.42-0.24-48.84-1.79-73.21C387.53,164.83,384.55,164.82,384.67,166.73L384.67,166.73z"/>
		</g>
	</g>
	<g>
		<g>
			<path class="st0" d="M193.24,210.43c-1.57-3.37-4.96-5.41-8.66-3.95c-4.33,1.71-6.22,7.23-7.19,11.34
				c-1.75,7.38-1.3,26.56,10.89,24.67c12.27-1.91,11.57-21.24,11.5-30c-0.13-16.91,1.21-33.75,2.62-50.59
				c0.14-1.65-2.66-2.06-2.92-0.4c-2.55,16.1-3.72,32.38-3.31,48.68c0.19,7.47,0.04,15.6,1.89,22.88c1.15,4.52,3.75,9.27,8.94,9.24
				c1.91-0.01,1.92-2.98,0-2.98c-2.89,0.01-5.18-4.05-5.84-6.24c-0.55-1.82-0.79-3.76-1-5.64c-0.31-2.84-0.48-5.7-0.65-8.54
				c-0.36-6.14-0.51-12.3-0.43-18.46c0.15-12.79,1.26-25.54,3.27-38.17c-0.97-0.13-1.95-0.26-2.92-0.4
				c-1.6,19.27-2.13,38.33-2.61,57.64c-0.12,4.94-0.51,10.22-2.95,14.64c-3.39,6.14-9.52,7.07-12.79,0.25
				c-2.32-4.84-2.01-10.7-0.8-15.81c0.9-3.82,6.39-15.34,10.41-6.68C191.47,213.67,194.04,212.16,193.24,210.43L193.24,210.43z"/>
		</g>
	</g>
	<g>
		<g>
			<path class="st0" d="M223.7,204.49c-0.87-2.82-2.88-5.74-6.28-5.16c-3.87,0.66-5.83,5.38-7.05,8.58
				c-3.54,9.26-5.26,22.61,1.54,30.91c5.99,7.32,13.11,1.32,15.71-5.62c2.06-5.49,5.65-22.28-1.93-25.21
				c-1.79-0.69-2.56,2.19-0.79,2.87c3.84,1.48,1.71,13.99,1.15,16.83c-1.02,5.15-5.86,16.49-11.89,9.11
				c-3.56-4.36-4.13-10.8-3.67-16.21c0.26-2.99,0.83-5.94,1.7-8.81c0.32-1.04,0.66-2.07,1.05-3.08c0.41-1.16,0.92-2.26,1.55-3.3
				c0.94-2.12,2.95-2.16,6.04-0.12C221.39,207.11,224.26,206.33,223.7,204.49L223.7,204.49z"/>
		</g>
	</g>
	<g>
		<g>
			<path class="st0" d="M239.33,201.61c-2.82,5.89-3.79,12.27-4.15,18.75c-0.22,3.91-0.19,7.83-0.12,11.74
				c0.05,2.5-0.1,5.33,1.15,7.62c2.17,3.98,7.57,5.73,11.56,3.45c4.75-2.72,5.96-9.31,5.61-14.26c-0.14-1.95-2.75-1.88-2.98,0
				c-0.88,7.39,5.51,22.25,14.29,13.55c9.3-9.22,5.99-26.54,2.11-37.32c-0.64-1.79-3.52-1.02-2.87,0.79
				c2.98,8.28,4.91,17.53,2.69,26.24c-0.93,3.64-3.64,11.41-8.86,9.44c-4.35-1.64-4.83-8.99-4.39-12.7c-0.99,0-1.98,0-2.98,0
				c0.32,4.46-2.02,16.23-9.64,11.39c-3.8-2.41-2.78-9.38-2.77-13.22c0.02-8.09,0.36-16.54,3.91-23.96
				C242.73,201.39,240.16,199.88,239.33,201.61L239.33,201.61z"/>
		</g>
	</g>
	<g>
		<g>
			<path class="st0" d="M276.11,208.53c-1.33,10.76-1.23,21.5,0.22,32.25c0.24,1.78,2.78,1.14,2.92-0.4
				c0.58-6.21,1.66-12.34,3.46-18.31c0.86-2.84,1.79-5.76,3.09-8.44c1.08-2.21,1.16-2.67,3.89-3.01c3.08-0.38,3,0.55,3.77,3.32
				c2.62,9.43,0.63,19.5,5.16,28.5c0.86,1.71,3.43,0.21,2.57-1.5c-3.58-7.12-3.03-15.45-4.03-23.16c-0.5-3.83-1.58-11.6-6.77-11.98
				c-5.08-0.38-7.51,6.86-8.89,10.53c-2.89,7.74-4.47,15.84-5.23,24.05c0.97-0.13,1.95-0.26,2.92-0.4
				c-1.41-10.47-1.42-20.98-0.12-31.45C279.32,206.63,276.34,206.65,276.11,208.53L276.11,208.53z"/>
		</g>
	</g>
	<g>
		<g>
			<path class="st0" d="M403.25,216.55c4.03,0.03,8.55,1.63,11.69-1.79c2.08-2.27,2.36-5.75,1.91-8.64
				c-1.09-6.98-7.6-11.34-13.41-5.82c-7.26,6.9-6.61,20.61-4.71,29.56c2.31,10.92,11.73,11.62,20.91,7.82
				c1.75-0.72,0.98-3.6-0.79-2.87c-3.09,1.28-6.28,2.22-9.67,2.09c-4.52-0.17-6.42-3.12-7.42-7.09c-1.46-5.74-1.56-12.83-0.42-18.62
				c0.59-2.98,1.6-6.08,3.74-8.34c3.11-3.27,6.9-2.28,8.38,1.83c0.64,1.78,1.24,5.85-0.27,7.47c-2.58,2.77-6.74,1.45-9.93,1.42
				C401.33,213.56,401.33,216.53,403.25,216.55L403.25,216.55z"/>
		</g>
	</g>
	<g>
		<g>
			<path class="st0" d="M441.55,204.62c-3.85-6.06-10.94-3.79-14.11,1.72c-3.74,6.5-5.9,18.15-3.32,25.4
				c2.14,6.03,8.26,8.06,13.46,4.22c7.85-5.8,6.97-17.74,6.47-26.3c-0.11-1.9-3-1.93-2.98,0c0.12,9.44,0.23,22.14,9.5,27.59
				c1.65,0.97,3.15-1.6,1.5-2.57c-8.19-4.82-7.92-16.78-8.03-25.02c-0.99,0-1.98,0-2.98,0c0.32,5.4,0.8,11.24-0.72,16.51
				c-1.56,5.41-9.79,14.15-13.36,4.77c-1.63-4.28-0.73-9.48,0.11-13.82c0.45-2.32,0.95-4.69,1.81-6.9c1.35-3.49,6.32-10,10.07-4.1
				C440,207.74,442.58,206.25,441.55,204.62L441.55,204.62z"/>
		</g>
	</g>
	<g>
		<g>
			<path class="st0" d="M477.94,199.64c0.15,14.49,0.95,28.95,2.43,43.36c0.19,1.86,3.03,1.95,2.98,0
				c-0.22-7.83,0.16-15.65,1.38-23.39c0.55-3.51,1.18-7.09,2.15-10.51c0.45-1.59,0.82-4.49,2.21-5.58c6.71-5.29,6.82,2.34,7.16,5.14
				c0.8,6.5,1.09,13.15,2.42,19.57c0.87,4.22,2.37,8.89,6.57,10.81c1.73,0.79,3.24-1.77,1.5-2.57c-4.11-1.88-4.97-7.19-5.6-11.22
				c-0.82-5.18-1.21-10.45-1.81-15.66c-0.51-4.42-1.15-12.42-7.57-11.44c-7,1.07-8.28,11.71-9.29,17.08
				c-1.73,9.16-2.37,18.46-2.11,27.77c0.99,0,1.98,0,2.98,0c-1.47-14.42-2.28-28.87-2.43-43.36
				C480.89,197.72,477.92,197.72,477.94,199.64L477.94,199.64z"/>
		</g>
	</g>
	<g>
		<g>
			<path class="st0" d="M524.58,204.61c-0.28,12.45,0.68,24.82,2.86,37.07c0.29,1.63,3.12,1.28,2.92-0.4
				c-0.77-6.47-1.51-12.96-1.53-19.48c-0.02-5.61-0.16-14.52,3.24-19.36c0.31-1.43,1.34-2.08,3.07-1.95
				c2.09-1.55,3.73-1.09,4.91,1.36c0.93,1.23,1.49,2.77,2,4.2c1.03,2.9,1.68,5.97,2.3,8.99c1.47,7.19,2.14,14.47,2.24,21.79
				c0.99,0,1.98,0,2.98,0c-0.75-6.63-1.54-13.26-2.24-19.89c-0.34-3.19-0.65-6.39-0.12-9.58c0.32-1.94,0.89-4.73,2.58-6.06
				c3.87-3.07,5.83-0.03,7.15,2.44c2.65,4.98,3.79,11.68,4.68,17.19c1.04,6.49,0.4,13.12,2.47,19.43c0.59,1.81,3.47,1.04,2.87-0.79
				c-1.65-5.02-1.43-10.15-1.93-15.34c-0.43-4.44-1.42-8.78-2.53-13.09c-1.22-4.74-2.96-13.26-8.95-14.2
				c-5.62-0.88-8.7,5.69-9.35,10.22c-1.35,9.5,1.35,20.22,2.41,29.68c0.21,1.85,3,1.96,2.98,0c-0.14-9.66-1.24-19.36-3.78-28.69
				c-1.33-4.91-4.37-13.04-10.98-12.02c-6.51,1.01-7.76,11.62-8.41,16.56c-1.25,9.51-0.14,19.13,0.99,28.59
				c0.97-0.13,1.95-0.26,2.92-0.4c-2.14-12-3.03-24.1-2.75-36.28C527.6,202.69,524.62,202.69,524.58,204.61L524.58,204.61z"/>
		</g>
	</g>
	<g>
		<g>
			<path class="st0" d="M582.29,201.21c-2.77-2.41-6.12-2.13-8.75,0.49c-3.84,3.83-3.8,10.51-3.96,15.54
				c-0.28,8.88,3.44,22.25,14.93,21.17c22.06-2.08,13.13-45.37-7.34-37.59c-1.77,0.67-1,3.55,0.79,2.87
				c15.33-5.82,22.33,23.34,9.87,30.56c-7.23,4.19-13.7-3.15-14.98-9.83c-0.66-3.46-0.39-7.25-0.11-10.74
				c0.2-2.55,1.91-15.17,7.44-10.36C581.62,204.57,583.74,202.47,582.29,201.21L582.29,201.21z"/>
		</g>
	</g>
	<g>
		<g>
			<path class="st0" d="M600.65,204.86c1.6,11.63,3.2,23.27,4.8,34.9c0.23,1.65,3.09,1.27,2.92-0.4c-0.68-6.89-1.4-13.87-0.46-20.77
				c0.81-6,3.18-14.27,9.76-16.15c1.84-0.53,1.06-3.4-0.79-2.87c-15.21,4.36-12.62,28.33-11.48,39.8c0.97-0.13,1.95-0.26,2.92-0.4
				c-1.6-11.63-3.2-23.27-4.8-34.9C603.26,202.18,600.39,202.98,600.65,204.86L600.65,204.86z"/>
		</g>
	</g>
	<g>
		<g>
			<path class="st0" d="M623.91,221.09c3.66,0.29,10.11,2.41,12.91-0.95c2.54-3.04,2.12-8.24,0.82-11.67
				c-2.83-7.49-10.91-8.85-15.8-2.33c-9.15,12.2,0.52,42.79,18.91,34.46c1.74-0.79,0.23-3.36-1.5-2.57
				c-11.77,5.33-18.71-11.59-18.04-20.54c0.22-2.93,0.82-6.03,2.36-8.59c2.44-4.04,7.7-5.83,10.52-1.07
				c1.68,2.83,3.12,9.66-1.47,10.97c-2.31,0.66-6.3-0.5-8.71-0.69C622,217.96,622.01,220.94,623.91,221.09L623.91,221.09z"/>
		</g>
	</g>
	<g>
		<g>
			<path class="st0" d="M454.15,200.86c2.88,11.56,4.79,23.27,5.71,35.14c0.97-0.13,1.95-0.26,2.92-0.4
				c-1.42-6.1-3.43-12.27-3.37-18.59c0.06-6.59,2.86-15.08,10.64-15.52c1.9-0.11,1.92-3.08,0-2.98
				c-18.89,1.06-12.75,26.65-10.14,37.88c0.37,1.61,3.05,1.3,2.92-0.4c-0.94-12.14-2.87-24.12-5.81-35.94
				C456.56,198.21,453.69,198.99,454.15,200.86L454.15,200.86z"/>
		</g>
	</g>
</g>
</svg>
